<mxfile host="Electron" agent="Mozilla/5.0 (Windows NT 10.0; Win64; x64) AppleWebKit/537.36 (KHTML, like Gecko) draw.io/24.7.17 Chrome/128.0.6613.36 Electron/32.0.1 Safari/537.36" version="24.7.17">
  <diagram name="Página-1" id="JfaqUzXzNCsJuXleUB1v">
    <mxGraphModel dx="1100" dy="2555" grid="1" gridSize="10" guides="1" tooltips="1" connect="1" arrows="1" fold="1" page="1" pageScale="1" pageWidth="1900" pageHeight="1900" background="none" math="0" shadow="0">
      <root>
        <mxCell id="0" />
        <mxCell id="1" parent="0" />
        <mxCell id="pHvH7JIO3FY33nbS9zuh-1" value="DefaultEntity" style="swimlane;fontStyle=0;childLayout=stackLayout;horizontal=1;startSize=26;fillColor=#647687;horizontalStack=0;resizeParent=1;resizeParentMax=0;resizeLast=0;collapsible=1;marginBottom=0;whiteSpace=wrap;html=1;fontColor=#ffffff;strokeColor=#314354;" vertex="1" parent="1">
          <mxGeometry x="420" y="30" width="140" height="104" as="geometry" />
        </mxCell>
        <mxCell id="pHvH7JIO3FY33nbS9zuh-3" value="+ CreatedAt: DateTime" style="text;strokeColor=none;fillColor=none;align=left;verticalAlign=top;spacingLeft=4;spacingRight=4;overflow=hidden;rotatable=0;points=[[0,0.5],[1,0.5]];portConstraint=eastwest;whiteSpace=wrap;html=1;" vertex="1" parent="pHvH7JIO3FY33nbS9zuh-1">
          <mxGeometry y="26" width="140" height="26" as="geometry" />
        </mxCell>
        <mxCell id="pHvH7JIO3FY33nbS9zuh-4" value="+ UpdatedAt: DateTime" style="text;strokeColor=none;fillColor=none;align=left;verticalAlign=top;spacingLeft=4;spacingRight=4;overflow=hidden;rotatable=0;points=[[0,0.5],[1,0.5]];portConstraint=eastwest;whiteSpace=wrap;html=1;" vertex="1" parent="pHvH7JIO3FY33nbS9zuh-1">
          <mxGeometry y="52" width="140" height="26" as="geometry" />
        </mxCell>
        <mxCell id="pHvH7JIO3FY33nbS9zuh-5" value="+ DeletedAt: DateTime" style="text;strokeColor=none;fillColor=none;align=left;verticalAlign=top;spacingLeft=4;spacingRight=4;overflow=hidden;rotatable=0;points=[[0,0.5],[1,0.5]];portConstraint=eastwest;whiteSpace=wrap;html=1;" vertex="1" parent="pHvH7JIO3FY33nbS9zuh-1">
          <mxGeometry y="78" width="140" height="26" as="geometry" />
        </mxCell>
        <mxCell id="pHvH7JIO3FY33nbS9zuh-6" value="Modelo de Entidade" style="text;html=1;align=center;verticalAlign=middle;resizable=0;points=[];autosize=1;strokeColor=none;fillColor=none;" vertex="1" parent="1">
          <mxGeometry x="570" y="30" width="130" height="30" as="geometry" />
        </mxCell>
        <mxCell id="pHvH7JIO3FY33nbS9zuh-7" value="Taloes" style="swimlane;fontStyle=0;childLayout=stackLayout;horizontal=1;startSize=26;fillColor=#60a917;horizontalStack=0;resizeParent=1;resizeParentMax=0;resizeLast=0;collapsible=1;marginBottom=0;whiteSpace=wrap;html=1;fontColor=#ffffff;strokeColor=#2D7600;" vertex="1" parent="1">
          <mxGeometry x="120" y="240" width="140" height="104" as="geometry" />
        </mxCell>
        <mxCell id="pHvH7JIO3FY33nbS9zuh-8" value="+ Id: short" style="text;strokeColor=none;fillColor=none;align=left;verticalAlign=top;spacingLeft=4;spacingRight=4;overflow=hidden;rotatable=0;points=[[0,0.5],[1,0.5]];portConstraint=eastwest;whiteSpace=wrap;html=1;" vertex="1" parent="pHvH7JIO3FY33nbS9zuh-7">
          <mxGeometry y="26" width="140" height="26" as="geometry" />
        </mxCell>
        <mxCell id="pHvH7JIO3FY33nbS9zuh-9" value="+ Nome: string" style="text;strokeColor=none;fillColor=none;align=left;verticalAlign=top;spacingLeft=4;spacingRight=4;overflow=hidden;rotatable=0;points=[[0,0.5],[1,0.5]];portConstraint=eastwest;whiteSpace=wrap;html=1;" vertex="1" parent="pHvH7JIO3FY33nbS9zuh-7">
          <mxGeometry y="52" width="140" height="26" as="geometry" />
        </mxCell>
        <mxCell id="pHvH7JIO3FY33nbS9zuh-10" value="+ Descricao: string" style="text;strokeColor=none;fillColor=none;align=left;verticalAlign=top;spacingLeft=4;spacingRight=4;overflow=hidden;rotatable=0;points=[[0,0.5],[1,0.5]];portConstraint=eastwest;whiteSpace=wrap;html=1;" vertex="1" parent="pHvH7JIO3FY33nbS9zuh-7">
          <mxGeometry y="78" width="140" height="26" as="geometry" />
        </mxCell>
        <mxCell id="pHvH7JIO3FY33nbS9zuh-16" style="edgeStyle=orthogonalEdgeStyle;rounded=0;orthogonalLoop=1;jettySize=auto;html=1;endArrow=None;" edge="1" parent="1" source="pHvH7JIO3FY33nbS9zuh-11" target="pHvH7JIO3FY33nbS9zuh-7">
          <mxGeometry relative="1" as="geometry" />
        </mxCell>
        <mxCell id="pHvH7JIO3FY33nbS9zuh-11" value="Ocupacoes" style="swimlane;fontStyle=0;childLayout=stackLayout;horizontal=1;startSize=26;fillColor=#0050ef;horizontalStack=0;resizeParent=1;resizeParentMax=0;resizeLast=0;collapsible=1;marginBottom=0;whiteSpace=wrap;html=1;fontColor=#ffffff;strokeColor=#001DBC;" vertex="1" parent="1">
          <mxGeometry x="390" y="240" width="140" height="104" as="geometry" />
        </mxCell>
        <mxCell id="pHvH7JIO3FY33nbS9zuh-12" value="+ Id: int" style="text;strokeColor=none;fillColor=none;align=left;verticalAlign=top;spacingLeft=4;spacingRight=4;overflow=hidden;rotatable=0;points=[[0,0.5],[1,0.5]];portConstraint=eastwest;whiteSpace=wrap;html=1;" vertex="1" parent="pHvH7JIO3FY33nbS9zuh-11">
          <mxGeometry y="26" width="140" height="26" as="geometry" />
        </mxCell>
        <mxCell id="pHvH7JIO3FY33nbS9zuh-13" value="+ Nome: string" style="text;strokeColor=none;fillColor=none;align=left;verticalAlign=top;spacingLeft=4;spacingRight=4;overflow=hidden;rotatable=0;points=[[0,0.5],[1,0.5]];portConstraint=eastwest;whiteSpace=wrap;html=1;" vertex="1" parent="pHvH7JIO3FY33nbS9zuh-11">
          <mxGeometry y="52" width="140" height="26" as="geometry" />
        </mxCell>
        <mxCell id="pHvH7JIO3FY33nbS9zuh-14" value="+ Descricao: string" style="text;strokeColor=none;fillColor=none;align=left;verticalAlign=top;spacingLeft=4;spacingRight=4;overflow=hidden;rotatable=0;points=[[0,0.5],[1,0.5]];portConstraint=eastwest;whiteSpace=wrap;html=1;" vertex="1" parent="pHvH7JIO3FY33nbS9zuh-11">
          <mxGeometry y="78" width="140" height="26" as="geometry" />
        </mxCell>
        <mxCell id="pHvH7JIO3FY33nbS9zuh-15" value="Todas as Entidades Herdarão dela" style="text;html=1;align=center;verticalAlign=middle;resizable=0;points=[];autosize=1;strokeColor=none;fillColor=none;" vertex="1" parent="1">
          <mxGeometry x="570" y="60" width="210" height="30" as="geometry" />
        </mxCell>
        <mxCell id="pHvH7JIO3FY33nbS9zuh-109" style="edgeStyle=orthogonalEdgeStyle;shape=connector;rounded=0;orthogonalLoop=1;jettySize=auto;html=1;strokeColor=default;align=center;verticalAlign=middle;fontFamily=Helvetica;fontSize=11;fontColor=default;labelBackgroundColor=default;endArrow=None;" edge="1" parent="1" source="pHvH7JIO3FY33nbS9zuh-17" target="pHvH7JIO3FY33nbS9zuh-47">
          <mxGeometry relative="1" as="geometry" />
        </mxCell>
        <mxCell id="pHvH7JIO3FY33nbS9zuh-17" value="TiposDeAcesso" style="swimlane;fontStyle=0;childLayout=stackLayout;horizontal=1;startSize=26;fillColor=#a0522d;horizontalStack=0;resizeParent=1;resizeParentMax=0;resizeLast=0;collapsible=1;marginBottom=0;whiteSpace=wrap;html=1;fontColor=#ffffff;strokeColor=#6D1F00;" vertex="1" parent="1">
          <mxGeometry x="100" y="770" width="140" height="78" as="geometry" />
        </mxCell>
        <mxCell id="pHvH7JIO3FY33nbS9zuh-18" value="+ Id: short" style="text;strokeColor=none;fillColor=none;align=left;verticalAlign=top;spacingLeft=4;spacingRight=4;overflow=hidden;rotatable=0;points=[[0,0.5],[1,0.5]];portConstraint=eastwest;whiteSpace=wrap;html=1;" vertex="1" parent="pHvH7JIO3FY33nbS9zuh-17">
          <mxGeometry y="26" width="140" height="26" as="geometry" />
        </mxCell>
        <mxCell id="pHvH7JIO3FY33nbS9zuh-19" value="+ Nome: string" style="text;strokeColor=none;fillColor=none;align=left;verticalAlign=top;spacingLeft=4;spacingRight=4;overflow=hidden;rotatable=0;points=[[0,0.5],[1,0.5]];portConstraint=eastwest;whiteSpace=wrap;html=1;" vertex="1" parent="pHvH7JIO3FY33nbS9zuh-17">
          <mxGeometry y="52" width="140" height="26" as="geometry" />
        </mxCell>
        <mxCell id="pHvH7JIO3FY33nbS9zuh-135" style="edgeStyle=orthogonalEdgeStyle;shape=connector;rounded=0;orthogonalLoop=1;jettySize=auto;html=1;strokeColor=default;align=center;verticalAlign=middle;fontFamily=Helvetica;fontSize=11;fontColor=default;labelBackgroundColor=default;endArrow=None;" edge="1" parent="1" source="pHvH7JIO3FY33nbS9zuh-21" target="pHvH7JIO3FY33nbS9zuh-112">
          <mxGeometry relative="1" as="geometry">
            <Array as="points">
              <mxPoint x="305" y="1259" />
              <mxPoint x="305" y="1159" />
            </Array>
          </mxGeometry>
        </mxCell>
        <mxCell id="pHvH7JIO3FY33nbS9zuh-21" value="TiposVinculo" style="swimlane;fontStyle=0;childLayout=stackLayout;horizontal=1;startSize=26;fillColor=none;horizontalStack=0;resizeParent=1;resizeParentMax=0;resizeLast=0;collapsible=1;marginBottom=0;whiteSpace=wrap;html=1;" vertex="1" parent="1">
          <mxGeometry x="100" y="1220" width="140" height="78" as="geometry" />
        </mxCell>
        <mxCell id="pHvH7JIO3FY33nbS9zuh-22" value="+ Id: short" style="text;strokeColor=none;fillColor=none;align=left;verticalAlign=top;spacingLeft=4;spacingRight=4;overflow=hidden;rotatable=0;points=[[0,0.5],[1,0.5]];portConstraint=eastwest;whiteSpace=wrap;html=1;" vertex="1" parent="pHvH7JIO3FY33nbS9zuh-21">
          <mxGeometry y="26" width="140" height="26" as="geometry" />
        </mxCell>
        <mxCell id="pHvH7JIO3FY33nbS9zuh-23" value="+ Nome: string" style="text;strokeColor=none;fillColor=none;align=left;verticalAlign=top;spacingLeft=4;spacingRight=4;overflow=hidden;rotatable=0;points=[[0,0.5],[1,0.5]];portConstraint=eastwest;whiteSpace=wrap;html=1;" vertex="1" parent="pHvH7JIO3FY33nbS9zuh-21">
          <mxGeometry y="52" width="140" height="26" as="geometry" />
        </mxCell>
        <mxCell id="pHvH7JIO3FY33nbS9zuh-121" style="edgeStyle=orthogonalEdgeStyle;shape=connector;rounded=0;orthogonalLoop=1;jettySize=auto;html=1;strokeColor=default;align=center;verticalAlign=middle;fontFamily=Helvetica;fontSize=11;fontColor=default;labelBackgroundColor=default;endArrow=None;" edge="1" parent="1" source="pHvH7JIO3FY33nbS9zuh-25" target="pHvH7JIO3FY33nbS9zuh-112">
          <mxGeometry relative="1" as="geometry" />
        </mxCell>
        <mxCell id="pHvH7JIO3FY33nbS9zuh-25" value="Funcoes" style="swimlane;fontStyle=0;childLayout=stackLayout;horizontal=1;startSize=26;fillColor=#CDEB8B;horizontalStack=0;resizeParent=1;resizeParentMax=0;resizeLast=0;collapsible=1;marginBottom=0;whiteSpace=wrap;html=1;strokeColor=#cdeb8b;fontColor=#000000;swimlaneFillColor=none;gradientColor=none;" vertex="1" parent="1">
          <mxGeometry x="100" y="1120" width="140" height="78" as="geometry" />
        </mxCell>
        <mxCell id="pHvH7JIO3FY33nbS9zuh-26" value="+ Id: short" style="text;strokeColor=none;fillColor=none;align=left;verticalAlign=top;spacingLeft=4;spacingRight=4;overflow=hidden;rotatable=0;points=[[0,0.5],[1,0.5]];portConstraint=eastwest;whiteSpace=wrap;html=1;" vertex="1" parent="pHvH7JIO3FY33nbS9zuh-25">
          <mxGeometry y="26" width="140" height="26" as="geometry" />
        </mxCell>
        <mxCell id="pHvH7JIO3FY33nbS9zuh-27" value="+ Nome: string" style="text;strokeColor=none;fillColor=none;align=left;verticalAlign=top;spacingLeft=4;spacingRight=4;overflow=hidden;rotatable=0;points=[[0,0.5],[1,0.5]];portConstraint=eastwest;whiteSpace=wrap;html=1;" vertex="1" parent="pHvH7JIO3FY33nbS9zuh-25">
          <mxGeometry y="52" width="140" height="26" as="geometry" />
        </mxCell>
        <mxCell id="pHvH7JIO3FY33nbS9zuh-46" style="edgeStyle=orthogonalEdgeStyle;shape=connector;rounded=0;orthogonalLoop=1;jettySize=auto;html=1;strokeColor=default;align=center;verticalAlign=middle;fontFamily=Helvetica;fontSize=11;fontColor=default;labelBackgroundColor=default;endArrow=None;" edge="1" parent="1" source="pHvH7JIO3FY33nbS9zuh-28" target="pHvH7JIO3FY33nbS9zuh-36">
          <mxGeometry relative="1" as="geometry" />
        </mxCell>
        <mxCell id="pHvH7JIO3FY33nbS9zuh-28" value="Conselhos" style="swimlane;fontStyle=0;childLayout=stackLayout;horizontal=1;startSize=26;fillColor=#fa6800;horizontalStack=0;resizeParent=1;resizeParentMax=0;resizeLast=0;collapsible=1;marginBottom=0;whiteSpace=wrap;html=1;fontColor=#000000;strokeColor=#C73500;" vertex="1" parent="1">
          <mxGeometry x="630" y="420" width="140" height="104" as="geometry" />
        </mxCell>
        <mxCell id="pHvH7JIO3FY33nbS9zuh-29" value="+ Id: int" style="text;strokeColor=none;fillColor=none;align=left;verticalAlign=top;spacingLeft=4;spacingRight=4;overflow=hidden;rotatable=0;points=[[0,0.5],[1,0.5]];portConstraint=eastwest;whiteSpace=wrap;html=1;" vertex="1" parent="pHvH7JIO3FY33nbS9zuh-28">
          <mxGeometry y="26" width="140" height="26" as="geometry" />
        </mxCell>
        <mxCell id="pHvH7JIO3FY33nbS9zuh-30" value="+ Nome: string" style="text;strokeColor=none;fillColor=none;align=left;verticalAlign=top;spacingLeft=4;spacingRight=4;overflow=hidden;rotatable=0;points=[[0,0.5],[1,0.5]];portConstraint=eastwest;whiteSpace=wrap;html=1;" vertex="1" parent="pHvH7JIO3FY33nbS9zuh-28">
          <mxGeometry y="52" width="140" height="26" as="geometry" />
        </mxCell>
        <mxCell id="pHvH7JIO3FY33nbS9zuh-31" value="+ Sigla: string" style="text;strokeColor=none;fillColor=none;align=left;verticalAlign=top;spacingLeft=4;spacingRight=4;overflow=hidden;rotatable=0;points=[[0,0.5],[1,0.5]];portConstraint=eastwest;whiteSpace=wrap;html=1;" vertex="1" parent="pHvH7JIO3FY33nbS9zuh-28">
          <mxGeometry y="78" width="140" height="26" as="geometry" />
        </mxCell>
        <mxCell id="pHvH7JIO3FY33nbS9zuh-136" style="edgeStyle=orthogonalEdgeStyle;shape=connector;rounded=0;orthogonalLoop=1;jettySize=auto;html=1;strokeColor=default;align=center;verticalAlign=middle;fontFamily=Helvetica;fontSize=11;fontColor=default;labelBackgroundColor=default;endArrow=None;" edge="1" parent="1" source="pHvH7JIO3FY33nbS9zuh-32" target="pHvH7JIO3FY33nbS9zuh-112">
          <mxGeometry relative="1" as="geometry">
            <Array as="points">
              <mxPoint x="440" y="1389" />
            </Array>
          </mxGeometry>
        </mxCell>
        <mxCell id="pHvH7JIO3FY33nbS9zuh-137" style="edgeStyle=orthogonalEdgeStyle;shape=connector;rounded=0;orthogonalLoop=1;jettySize=auto;html=1;strokeColor=default;align=center;verticalAlign=middle;fontFamily=Helvetica;fontSize=11;fontColor=default;labelBackgroundColor=default;endArrow=None;" edge="1" parent="1" source="pHvH7JIO3FY33nbS9zuh-32" target="pHvH7JIO3FY33nbS9zuh-122">
          <mxGeometry relative="1" as="geometry" />
        </mxCell>
        <mxCell id="pHvH7JIO3FY33nbS9zuh-138" style="edgeStyle=orthogonalEdgeStyle;shape=connector;rounded=0;orthogonalLoop=1;jettySize=auto;html=1;strokeColor=default;align=center;verticalAlign=middle;fontFamily=Helvetica;fontSize=11;fontColor=default;labelBackgroundColor=default;endArrow=None;" edge="1" parent="1" source="pHvH7JIO3FY33nbS9zuh-32" target="pHvH7JIO3FY33nbS9zuh-47">
          <mxGeometry relative="1" as="geometry">
            <Array as="points">
              <mxPoint x="550" y="990" />
              <mxPoint x="460" y="990" />
            </Array>
          </mxGeometry>
        </mxCell>
        <mxCell id="pHvH7JIO3FY33nbS9zuh-32" value="Situacoes" style="swimlane;fontStyle=0;childLayout=stackLayout;horizontal=1;startSize=26;fillColor=#ffcd28;horizontalStack=0;resizeParent=1;resizeParentMax=0;resizeLast=0;collapsible=1;marginBottom=0;whiteSpace=wrap;html=1;gradientColor=#ffa500;strokeColor=#d79b00;fontColor=#000000;" vertex="1" parent="1">
          <mxGeometry x="530" y="1350" width="140" height="78" as="geometry" />
        </mxCell>
        <mxCell id="pHvH7JIO3FY33nbS9zuh-33" value="+ Id: int" style="text;strokeColor=none;fillColor=none;align=left;verticalAlign=top;spacingLeft=4;spacingRight=4;overflow=hidden;rotatable=0;points=[[0,0.5],[1,0.5]];portConstraint=eastwest;whiteSpace=wrap;html=1;" vertex="1" parent="pHvH7JIO3FY33nbS9zuh-32">
          <mxGeometry y="26" width="140" height="26" as="geometry" />
        </mxCell>
        <mxCell id="pHvH7JIO3FY33nbS9zuh-35" value="+ Nome: string" style="text;strokeColor=none;fillColor=none;align=left;verticalAlign=top;spacingLeft=4;spacingRight=4;overflow=hidden;rotatable=0;points=[[0,0.5],[1,0.5]];portConstraint=eastwest;whiteSpace=wrap;html=1;" vertex="1" parent="pHvH7JIO3FY33nbS9zuh-32">
          <mxGeometry y="52" width="140" height="26" as="geometry" />
        </mxCell>
        <mxCell id="pHvH7JIO3FY33nbS9zuh-36" value="Estados" style="swimlane;fontStyle=0;childLayout=stackLayout;horizontal=1;startSize=26;fillColor=#d80073;horizontalStack=0;resizeParent=1;resizeParentMax=0;resizeLast=0;collapsible=1;marginBottom=0;whiteSpace=wrap;html=1;fontColor=#ffffff;strokeColor=#A50040;" vertex="1" parent="1">
          <mxGeometry x="940" y="470" width="140" height="104" as="geometry" />
        </mxCell>
        <mxCell id="pHvH7JIO3FY33nbS9zuh-37" value="+ Id: int" style="text;strokeColor=none;fillColor=none;align=left;verticalAlign=top;spacingLeft=4;spacingRight=4;overflow=hidden;rotatable=0;points=[[0,0.5],[1,0.5]];portConstraint=eastwest;whiteSpace=wrap;html=1;" vertex="1" parent="pHvH7JIO3FY33nbS9zuh-36">
          <mxGeometry y="26" width="140" height="26" as="geometry" />
        </mxCell>
        <mxCell id="pHvH7JIO3FY33nbS9zuh-38" value="+ Sigla: string" style="text;strokeColor=none;fillColor=none;align=left;verticalAlign=top;spacingLeft=4;spacingRight=4;overflow=hidden;rotatable=0;points=[[0,0.5],[1,0.5]];portConstraint=eastwest;whiteSpace=wrap;html=1;" vertex="1" parent="pHvH7JIO3FY33nbS9zuh-36">
          <mxGeometry y="52" width="140" height="26" as="geometry" />
        </mxCell>
        <mxCell id="pHvH7JIO3FY33nbS9zuh-39" value="+ Nome: string" style="text;strokeColor=none;fillColor=none;align=left;verticalAlign=top;spacingLeft=4;spacingRight=4;overflow=hidden;rotatable=0;points=[[0,0.5],[1,0.5]];portConstraint=eastwest;whiteSpace=wrap;html=1;" vertex="1" parent="pHvH7JIO3FY33nbS9zuh-36">
          <mxGeometry y="78" width="140" height="26" as="geometry" />
        </mxCell>
        <mxCell id="pHvH7JIO3FY33nbS9zuh-44" style="edgeStyle=orthogonalEdgeStyle;shape=connector;rounded=0;orthogonalLoop=1;jettySize=auto;html=1;strokeColor=default;align=center;verticalAlign=middle;fontFamily=Helvetica;fontSize=11;fontColor=default;labelBackgroundColor=default;endArrow=None;" edge="1" parent="1" source="pHvH7JIO3FY33nbS9zuh-40" target="pHvH7JIO3FY33nbS9zuh-36">
          <mxGeometry relative="1" as="geometry" />
        </mxCell>
        <mxCell id="pHvH7JIO3FY33nbS9zuh-40" value="Municipios" style="swimlane;fontStyle=0;childLayout=stackLayout;horizontal=1;startSize=26;fillColor=#1ba1e2;horizontalStack=0;resizeParent=1;resizeParentMax=0;resizeLast=0;collapsible=1;marginBottom=0;whiteSpace=wrap;html=1;fontColor=#ffffff;strokeColor=#006EAF;" vertex="1" parent="1">
          <mxGeometry x="940" y="640" width="140" height="78" as="geometry" />
        </mxCell>
        <mxCell id="pHvH7JIO3FY33nbS9zuh-41" value="+ Id: int" style="text;strokeColor=none;fillColor=none;align=left;verticalAlign=top;spacingLeft=4;spacingRight=4;overflow=hidden;rotatable=0;points=[[0,0.5],[1,0.5]];portConstraint=eastwest;whiteSpace=wrap;html=1;" vertex="1" parent="pHvH7JIO3FY33nbS9zuh-40">
          <mxGeometry y="26" width="140" height="26" as="geometry" />
        </mxCell>
        <mxCell id="pHvH7JIO3FY33nbS9zuh-43" value="+ Nome: string" style="text;strokeColor=none;fillColor=none;align=left;verticalAlign=top;spacingLeft=4;spacingRight=4;overflow=hidden;rotatable=0;points=[[0,0.5],[1,0.5]];portConstraint=eastwest;whiteSpace=wrap;html=1;" vertex="1" parent="pHvH7JIO3FY33nbS9zuh-40">
          <mxGeometry y="52" width="140" height="26" as="geometry" />
        </mxCell>
        <mxCell id="pHvH7JIO3FY33nbS9zuh-93" style="edgeStyle=orthogonalEdgeStyle;shape=connector;rounded=0;orthogonalLoop=1;jettySize=auto;html=1;strokeColor=default;align=center;verticalAlign=middle;fontFamily=Helvetica;fontSize=11;fontColor=default;labelBackgroundColor=default;endArrow=None;startArrow=classic;startFill=0;" edge="1" parent="1" source="pHvH7JIO3FY33nbS9zuh-47" target="pHvH7JIO3FY33nbS9zuh-58">
          <mxGeometry relative="1" as="geometry">
            <Array as="points">
              <mxPoint x="460" y="886" />
            </Array>
          </mxGeometry>
        </mxCell>
        <mxCell id="pHvH7JIO3FY33nbS9zuh-94" style="edgeStyle=orthogonalEdgeStyle;shape=connector;rounded=0;orthogonalLoop=1;jettySize=auto;html=1;strokeColor=default;align=center;verticalAlign=middle;fontFamily=Helvetica;fontSize=11;fontColor=default;labelBackgroundColor=default;endArrow=None;startArrow=classic;startFill=0;" edge="1" parent="1" source="pHvH7JIO3FY33nbS9zuh-47" target="pHvH7JIO3FY33nbS9zuh-67">
          <mxGeometry relative="1" as="geometry" />
        </mxCell>
        <mxCell id="pHvH7JIO3FY33nbS9zuh-47" value="Usuarios" style="swimlane;fontStyle=0;childLayout=stackLayout;horizontal=1;startSize=26;fillColor=#fad7ac;horizontalStack=0;resizeParent=1;resizeParentMax=0;resizeLast=0;collapsible=1;marginBottom=0;whiteSpace=wrap;html=1;strokeColor=#b46504;fontColor=#0a0a0a;" vertex="1" parent="1">
          <mxGeometry x="390" y="574" width="140" height="234" as="geometry" />
        </mxCell>
        <mxCell id="pHvH7JIO3FY33nbS9zuh-48" value="+ Id: Guid" style="text;strokeColor=none;fillColor=none;align=left;verticalAlign=top;spacingLeft=4;spacingRight=4;overflow=hidden;rotatable=0;points=[[0,0.5],[1,0.5]];portConstraint=eastwest;whiteSpace=wrap;html=1;" vertex="1" parent="pHvH7JIO3FY33nbS9zuh-47">
          <mxGeometry y="26" width="140" height="26" as="geometry" />
        </mxCell>
        <mxCell id="pHvH7JIO3FY33nbS9zuh-51" value="+ Cpf: string" style="text;strokeColor=none;fillColor=none;align=left;verticalAlign=top;spacingLeft=4;spacingRight=4;overflow=hidden;rotatable=0;points=[[0,0.5],[1,0.5]];portConstraint=eastwest;whiteSpace=wrap;html=1;" vertex="1" parent="pHvH7JIO3FY33nbS9zuh-47">
          <mxGeometry y="52" width="140" height="26" as="geometry" />
        </mxCell>
        <mxCell id="pHvH7JIO3FY33nbS9zuh-49" value="+ Nome: string" style="text;strokeColor=none;fillColor=none;align=left;verticalAlign=top;spacingLeft=4;spacingRight=4;overflow=hidden;rotatable=0;points=[[0,0.5],[1,0.5]];portConstraint=eastwest;whiteSpace=wrap;html=1;" vertex="1" parent="pHvH7JIO3FY33nbS9zuh-47">
          <mxGeometry y="78" width="140" height="26" as="geometry" />
        </mxCell>
        <mxCell id="pHvH7JIO3FY33nbS9zuh-50" value="+ NomeSocial: string" style="text;strokeColor=none;fillColor=none;align=left;verticalAlign=top;spacingLeft=4;spacingRight=4;overflow=hidden;rotatable=0;points=[[0,0.5],[1,0.5]];portConstraint=eastwest;whiteSpace=wrap;html=1;" vertex="1" parent="pHvH7JIO3FY33nbS9zuh-47">
          <mxGeometry y="104" width="140" height="26" as="geometry" />
        </mxCell>
        <mxCell id="pHvH7JIO3FY33nbS9zuh-52" value="+ DtNascimento: string" style="text;strokeColor=none;fillColor=none;align=left;verticalAlign=top;spacingLeft=4;spacingRight=4;overflow=hidden;rotatable=0;points=[[0,0.5],[1,0.5]];portConstraint=eastwest;whiteSpace=wrap;html=1;" vertex="1" parent="pHvH7JIO3FY33nbS9zuh-47">
          <mxGeometry y="130" width="140" height="26" as="geometry" />
        </mxCell>
        <mxCell id="pHvH7JIO3FY33nbS9zuh-53" value="+ Email: string" style="text;strokeColor=none;fillColor=none;align=left;verticalAlign=top;spacingLeft=4;spacingRight=4;overflow=hidden;rotatable=0;points=[[0,0.5],[1,0.5]];portConstraint=eastwest;whiteSpace=wrap;html=1;" vertex="1" parent="pHvH7JIO3FY33nbS9zuh-47">
          <mxGeometry y="156" width="140" height="26" as="geometry" />
        </mxCell>
        <mxCell id="pHvH7JIO3FY33nbS9zuh-54" value="+ HashSenha: string" style="text;strokeColor=none;fillColor=none;align=left;verticalAlign=top;spacingLeft=4;spacingRight=4;overflow=hidden;rotatable=0;points=[[0,0.5],[1,0.5]];portConstraint=eastwest;whiteSpace=wrap;html=1;" vertex="1" parent="pHvH7JIO3FY33nbS9zuh-47">
          <mxGeometry y="182" width="140" height="26" as="geometry" />
        </mxCell>
        <mxCell id="pHvH7JIO3FY33nbS9zuh-57" value="+ TrocarSenha: boolean" style="text;strokeColor=none;fillColor=none;align=left;verticalAlign=top;spacingLeft=4;spacingRight=4;overflow=hidden;rotatable=0;points=[[0,0.5],[1,0.5]];portConstraint=eastwest;whiteSpace=wrap;html=1;" vertex="1" parent="pHvH7JIO3FY33nbS9zuh-47">
          <mxGeometry y="208" width="140" height="26" as="geometry" />
        </mxCell>
        <mxCell id="pHvH7JIO3FY33nbS9zuh-76" style="edgeStyle=orthogonalEdgeStyle;shape=connector;rounded=0;orthogonalLoop=1;jettySize=auto;html=1;strokeColor=default;align=center;verticalAlign=middle;fontFamily=Helvetica;fontSize=11;fontColor=default;labelBackgroundColor=default;endArrow=None;" edge="1" parent="1" source="pHvH7JIO3FY33nbS9zuh-58" target="pHvH7JIO3FY33nbS9zuh-28">
          <mxGeometry relative="1" as="geometry" />
        </mxCell>
        <mxCell id="pHvH7JIO3FY33nbS9zuh-92" style="edgeStyle=orthogonalEdgeStyle;shape=connector;rounded=0;orthogonalLoop=1;jettySize=auto;html=1;strokeColor=default;align=center;verticalAlign=middle;fontFamily=Helvetica;fontSize=11;fontColor=default;labelBackgroundColor=default;endArrow=None;" edge="1" parent="1" source="pHvH7JIO3FY33nbS9zuh-58" target="pHvH7JIO3FY33nbS9zuh-11">
          <mxGeometry relative="1" as="geometry">
            <Array as="points">
              <mxPoint x="590" y="292" />
            </Array>
          </mxGeometry>
        </mxCell>
        <mxCell id="pHvH7JIO3FY33nbS9zuh-58" value="UsuarioExterno" style="swimlane;fontStyle=0;childLayout=stackLayout;horizontal=1;startSize=26;fillColor=#d0cee2;horizontalStack=0;resizeParent=1;resizeParentMax=0;resizeLast=0;collapsible=1;marginBottom=0;whiteSpace=wrap;html=1;strokeColor=#56517e;fontColor=#000000;" vertex="1" parent="1">
          <mxGeometry x="520" y="860" width="140" height="52" as="geometry" />
        </mxCell>
        <mxCell id="pHvH7JIO3FY33nbS9zuh-59" value="+ Crm: string" style="text;strokeColor=none;fillColor=none;align=left;verticalAlign=top;spacingLeft=4;spacingRight=4;overflow=hidden;rotatable=0;points=[[0,0.5],[1,0.5]];portConstraint=eastwest;whiteSpace=wrap;html=1;" vertex="1" parent="pHvH7JIO3FY33nbS9zuh-58">
          <mxGeometry y="26" width="140" height="26" as="geometry" />
        </mxCell>
        <mxCell id="pHvH7JIO3FY33nbS9zuh-67" value="UsuarioInterno" style="swimlane;fontStyle=0;childLayout=stackLayout;horizontal=1;startSize=26;fillColor=#b1ddf0;horizontalStack=0;resizeParent=1;resizeParentMax=0;resizeLast=0;collapsible=1;marginBottom=0;whiteSpace=wrap;html=1;strokeColor=#10739e;fontColor=#050505;" vertex="1" parent="1">
          <mxGeometry x="270" y="860" width="140" height="50" as="geometry" />
        </mxCell>
        <mxCell id="pHvH7JIO3FY33nbS9zuh-68" value="+ Matricula: string" style="text;strokeColor=none;fillColor=none;align=left;verticalAlign=top;spacingLeft=4;spacingRight=4;overflow=hidden;rotatable=0;points=[[0,0.5],[1,0.5]];portConstraint=eastwest;whiteSpace=wrap;html=1;" vertex="1" parent="pHvH7JIO3FY33nbS9zuh-67">
          <mxGeometry y="26" width="140" height="24" as="geometry" />
        </mxCell>
        <mxCell id="pHvH7JIO3FY33nbS9zuh-86" style="edgeStyle=orthogonalEdgeStyle;shape=connector;rounded=0;orthogonalLoop=1;jettySize=auto;html=1;strokeColor=default;align=center;verticalAlign=middle;fontFamily=Helvetica;fontSize=11;fontColor=default;labelBackgroundColor=default;endArrow=None;" edge="1" parent="1" source="pHvH7JIO3FY33nbS9zuh-77" target="pHvH7JIO3FY33nbS9zuh-47">
          <mxGeometry relative="1" as="geometry" />
        </mxCell>
        <mxCell id="pHvH7JIO3FY33nbS9zuh-77" value="Telefones" style="swimlane;fontStyle=0;childLayout=stackLayout;horizontal=1;startSize=26;fillColor=#76608a;horizontalStack=0;resizeParent=1;resizeParentMax=0;resizeLast=0;collapsible=1;marginBottom=0;whiteSpace=wrap;html=1;fontColor=#ffffff;strokeColor=#432D57;" vertex="1" parent="1">
          <mxGeometry x="100" y="652" width="140" height="78" as="geometry" />
        </mxCell>
        <mxCell id="pHvH7JIO3FY33nbS9zuh-84" value="+ DDD: string" style="text;strokeColor=none;fillColor=none;align=left;verticalAlign=top;spacingLeft=4;spacingRight=4;overflow=hidden;rotatable=0;points=[[0,0.5],[1,0.5]];portConstraint=eastwest;whiteSpace=wrap;html=1;" vertex="1" parent="pHvH7JIO3FY33nbS9zuh-77">
          <mxGeometry y="26" width="140" height="26" as="geometry" />
        </mxCell>
        <mxCell id="pHvH7JIO3FY33nbS9zuh-85" value="+ Numero: string" style="text;strokeColor=none;fillColor=none;align=left;verticalAlign=top;spacingLeft=4;spacingRight=4;overflow=hidden;rotatable=0;points=[[0,0.5],[1,0.5]];portConstraint=eastwest;whiteSpace=wrap;html=1;" vertex="1" parent="pHvH7JIO3FY33nbS9zuh-77">
          <mxGeometry y="52" width="140" height="26" as="geometry" />
        </mxCell>
        <mxCell id="pHvH7JIO3FY33nbS9zuh-89" style="edgeStyle=orthogonalEdgeStyle;shape=connector;rounded=0;orthogonalLoop=1;jettySize=auto;html=1;strokeColor=default;align=center;verticalAlign=middle;fontFamily=Helvetica;fontSize=11;fontColor=default;labelBackgroundColor=default;endArrow=None;" edge="1" parent="1" source="pHvH7JIO3FY33nbS9zuh-87" target="pHvH7JIO3FY33nbS9zuh-67">
          <mxGeometry relative="1" as="geometry" />
        </mxCell>
        <mxCell id="pHvH7JIO3FY33nbS9zuh-87" value="Grupos" style="swimlane;fontStyle=0;childLayout=stackLayout;horizontal=1;startSize=26;fillColor=#6d8764;horizontalStack=0;resizeParent=1;resizeParentMax=0;resizeLast=0;collapsible=1;marginBottom=0;whiteSpace=wrap;html=1;fontColor=#ffffff;strokeColor=#3A5431;" vertex="1" parent="1">
          <mxGeometry x="100" y="938" width="140" height="50" as="geometry" />
        </mxCell>
        <mxCell id="pHvH7JIO3FY33nbS9zuh-88" value="+ Id: short" style="text;strokeColor=none;fillColor=none;align=left;verticalAlign=top;spacingLeft=4;spacingRight=4;overflow=hidden;rotatable=0;points=[[0,0.5],[1,0.5]];portConstraint=eastwest;whiteSpace=wrap;html=1;" vertex="1" parent="pHvH7JIO3FY33nbS9zuh-87">
          <mxGeometry y="26" width="140" height="24" as="geometry" />
        </mxCell>
        <mxCell id="pHvH7JIO3FY33nbS9zuh-108" style="edgeStyle=orthogonalEdgeStyle;shape=connector;rounded=0;orthogonalLoop=1;jettySize=auto;html=1;strokeColor=default;align=center;verticalAlign=middle;fontFamily=Helvetica;fontSize=11;fontColor=default;labelBackgroundColor=default;endArrow=diamondThin;startArrow=none;startFill=0;endFill=1;" edge="1" parent="1" source="pHvH7JIO3FY33nbS9zuh-96" target="pHvH7JIO3FY33nbS9zuh-58">
          <mxGeometry relative="1" as="geometry">
            <Array as="points">
              <mxPoint x="710" y="830" />
              <mxPoint x="710" y="970" />
              <mxPoint x="590" y="970" />
            </Array>
          </mxGeometry>
        </mxCell>
        <mxCell id="pHvH7JIO3FY33nbS9zuh-110" style="edgeStyle=orthogonalEdgeStyle;shape=connector;rounded=0;orthogonalLoop=1;jettySize=auto;html=1;strokeColor=default;align=center;verticalAlign=middle;fontFamily=Helvetica;fontSize=11;fontColor=default;labelBackgroundColor=default;endArrow=None;" edge="1" parent="1" source="pHvH7JIO3FY33nbS9zuh-96" target="pHvH7JIO3FY33nbS9zuh-40">
          <mxGeometry relative="1" as="geometry" />
        </mxCell>
        <mxCell id="pHvH7JIO3FY33nbS9zuh-111" style="edgeStyle=orthogonalEdgeStyle;shape=connector;rounded=0;orthogonalLoop=1;jettySize=auto;html=1;strokeColor=default;align=center;verticalAlign=middle;fontFamily=Helvetica;fontSize=11;fontColor=default;labelBackgroundColor=default;endArrow=None;" edge="1" parent="1" source="pHvH7JIO3FY33nbS9zuh-96" target="pHvH7JIO3FY33nbS9zuh-36">
          <mxGeometry relative="1" as="geometry">
            <Array as="points">
              <mxPoint x="1120" y="1024" />
              <mxPoint x="1120" y="522" />
            </Array>
          </mxGeometry>
        </mxCell>
        <mxCell id="pHvH7JIO3FY33nbS9zuh-132" style="edgeStyle=orthogonalEdgeStyle;shape=connector;rounded=0;orthogonalLoop=1;jettySize=auto;html=1;strokeColor=default;align=center;verticalAlign=middle;fontFamily=Helvetica;fontSize=11;fontColor=default;labelBackgroundColor=default;endArrow=diamondThin;endFill=1;" edge="1" parent="1" source="pHvH7JIO3FY33nbS9zuh-96" target="pHvH7JIO3FY33nbS9zuh-122">
          <mxGeometry relative="1" as="geometry">
            <Array as="points">
              <mxPoint x="860" y="990" />
              <mxPoint x="690" y="990" />
            </Array>
          </mxGeometry>
        </mxCell>
        <mxCell id="pHvH7JIO3FY33nbS9zuh-96" value="Endereco" style="swimlane;fontStyle=0;childLayout=stackLayout;horizontal=1;startSize=26;fillColor=#f0a30a;horizontalStack=0;resizeParent=1;resizeParentMax=0;resizeLast=0;collapsible=1;marginBottom=0;whiteSpace=wrap;html=1;strokeColor=#BD7000;fontColor=#000000;" vertex="1" parent="1">
          <mxGeometry x="790" y="756" width="140" height="182" as="geometry" />
        </mxCell>
        <mxCell id="pHvH7JIO3FY33nbS9zuh-97" value="+ Id: Guid" style="text;strokeColor=none;fillColor=none;align=left;verticalAlign=top;spacingLeft=4;spacingRight=4;overflow=hidden;rotatable=0;points=[[0,0.5],[1,0.5]];portConstraint=eastwest;whiteSpace=wrap;html=1;" vertex="1" parent="pHvH7JIO3FY33nbS9zuh-96">
          <mxGeometry y="26" width="140" height="26" as="geometry" />
        </mxCell>
        <mxCell id="pHvH7JIO3FY33nbS9zuh-98" value="+ Cep: string" style="text;strokeColor=none;fillColor=none;align=left;verticalAlign=top;spacingLeft=4;spacingRight=4;overflow=hidden;rotatable=0;points=[[0,0.5],[1,0.5]];portConstraint=eastwest;whiteSpace=wrap;html=1;" vertex="1" parent="pHvH7JIO3FY33nbS9zuh-96">
          <mxGeometry y="52" width="140" height="26" as="geometry" />
        </mxCell>
        <mxCell id="pHvH7JIO3FY33nbS9zuh-131" value="+ Bairro: string" style="text;strokeColor=none;fillColor=none;align=left;verticalAlign=top;spacingLeft=4;spacingRight=4;overflow=hidden;rotatable=0;points=[[0,0.5],[1,0.5]];portConstraint=eastwest;whiteSpace=wrap;html=1;" vertex="1" parent="pHvH7JIO3FY33nbS9zuh-96">
          <mxGeometry y="78" width="140" height="26" as="geometry" />
        </mxCell>
        <mxCell id="pHvH7JIO3FY33nbS9zuh-101" value="+ Logradouro: string" style="text;strokeColor=none;fillColor=none;align=left;verticalAlign=top;spacingLeft=4;spacingRight=4;overflow=hidden;rotatable=0;points=[[0,0.5],[1,0.5]];portConstraint=eastwest;whiteSpace=wrap;html=1;" vertex="1" parent="pHvH7JIO3FY33nbS9zuh-96">
          <mxGeometry y="104" width="140" height="26" as="geometry" />
        </mxCell>
        <mxCell id="pHvH7JIO3FY33nbS9zuh-103" value="+ Numero: string" style="text;strokeColor=none;fillColor=none;align=left;verticalAlign=top;spacingLeft=4;spacingRight=4;overflow=hidden;rotatable=0;points=[[0,0.5],[1,0.5]];portConstraint=eastwest;whiteSpace=wrap;html=1;" vertex="1" parent="pHvH7JIO3FY33nbS9zuh-96">
          <mxGeometry y="130" width="140" height="26" as="geometry" />
        </mxCell>
        <mxCell id="pHvH7JIO3FY33nbS9zuh-102" value="+ Complemento: string" style="text;strokeColor=none;fillColor=none;align=left;verticalAlign=top;spacingLeft=4;spacingRight=4;overflow=hidden;rotatable=0;points=[[0,0.5],[1,0.5]];portConstraint=eastwest;whiteSpace=wrap;html=1;" vertex="1" parent="pHvH7JIO3FY33nbS9zuh-96">
          <mxGeometry y="156" width="140" height="26" as="geometry" />
        </mxCell>
        <mxCell id="pHvH7JIO3FY33nbS9zuh-106" value="ValueObject" style="text;html=1;align=center;verticalAlign=middle;resizable=0;points=[];autosize=1;strokeColor=none;fillColor=none;fontFamily=Helvetica;fontSize=11;fontColor=default;labelBackgroundColor=default;" vertex="1" parent="1">
          <mxGeometry x="930" y="764" width="80" height="30" as="geometry" />
        </mxCell>
        <mxCell id="pHvH7JIO3FY33nbS9zuh-134" style="edgeStyle=orthogonalEdgeStyle;shape=connector;rounded=0;orthogonalLoop=1;jettySize=auto;html=1;strokeColor=default;align=center;verticalAlign=middle;fontFamily=Helvetica;fontSize=11;fontColor=default;labelBackgroundColor=default;endArrow=None;" edge="1" parent="1" source="pHvH7JIO3FY33nbS9zuh-112" target="pHvH7JIO3FY33nbS9zuh-58">
          <mxGeometry relative="1" as="geometry">
            <Array as="points">
              <mxPoint x="540" y="1160" />
            </Array>
          </mxGeometry>
        </mxCell>
        <mxCell id="pHvH7JIO3FY33nbS9zuh-112" value="UsuarioEmpresa" style="swimlane;fontStyle=0;childLayout=stackLayout;horizontal=1;startSize=26;fillColor=#ffcccc;horizontalStack=0;resizeParent=1;resizeParentMax=0;resizeLast=0;collapsible=1;marginBottom=0;whiteSpace=wrap;html=1;strokeColor=#36393d;fontColor=#000000;" vertex="1" parent="1">
          <mxGeometry x="370" y="1042" width="140" height="52" as="geometry" />
        </mxCell>
        <mxCell id="pHvH7JIO3FY33nbS9zuh-133" style="edgeStyle=orthogonalEdgeStyle;shape=connector;rounded=0;orthogonalLoop=1;jettySize=auto;html=1;strokeColor=default;align=center;verticalAlign=middle;fontFamily=Helvetica;fontSize=11;fontColor=default;labelBackgroundColor=default;endArrow=None;" edge="1" parent="1" source="pHvH7JIO3FY33nbS9zuh-122" target="pHvH7JIO3FY33nbS9zuh-112">
          <mxGeometry relative="1" as="geometry" />
        </mxCell>
        <mxCell id="pHvH7JIO3FY33nbS9zuh-122" value="Empresa" style="swimlane;fontStyle=0;childLayout=stackLayout;horizontal=1;startSize=26;fillColor=#d5e8d4;horizontalStack=0;resizeParent=1;resizeParentMax=0;resizeLast=0;collapsible=1;marginBottom=0;whiteSpace=wrap;html=1;gradientColor=#97d077;strokeColor=#82b366;fontColor=#000000;" vertex="1" parent="1">
          <mxGeometry x="620" y="1030" width="140" height="130" as="geometry" />
        </mxCell>
        <mxCell id="pHvH7JIO3FY33nbS9zuh-123" value="+ Id: Guid" style="text;strokeColor=none;fillColor=none;align=left;verticalAlign=top;spacingLeft=4;spacingRight=4;overflow=hidden;rotatable=0;points=[[0,0.5],[1,0.5]];portConstraint=eastwest;whiteSpace=wrap;html=1;" vertex="1" parent="pHvH7JIO3FY33nbS9zuh-122">
          <mxGeometry y="26" width="140" height="26" as="geometry" />
        </mxCell>
        <mxCell id="pHvH7JIO3FY33nbS9zuh-124" value="+ Cnpj: string" style="text;strokeColor=none;fillColor=none;align=left;verticalAlign=top;spacingLeft=4;spacingRight=4;overflow=hidden;rotatable=0;points=[[0,0.5],[1,0.5]];portConstraint=eastwest;whiteSpace=wrap;html=1;" vertex="1" parent="pHvH7JIO3FY33nbS9zuh-122">
          <mxGeometry y="52" width="140" height="26" as="geometry" />
        </mxCell>
        <mxCell id="pHvH7JIO3FY33nbS9zuh-125" value="+ NomeFantasia: string" style="text;strokeColor=none;fillColor=none;align=left;verticalAlign=top;spacingLeft=4;spacingRight=4;overflow=hidden;rotatable=0;points=[[0,0.5],[1,0.5]];portConstraint=eastwest;whiteSpace=wrap;html=1;" vertex="1" parent="pHvH7JIO3FY33nbS9zuh-122">
          <mxGeometry y="78" width="140" height="26" as="geometry" />
        </mxCell>
        <mxCell id="pHvH7JIO3FY33nbS9zuh-126" value="+ RazaoSocial: string" style="text;strokeColor=none;fillColor=none;align=left;verticalAlign=top;spacingLeft=4;spacingRight=4;overflow=hidden;rotatable=0;points=[[0,0.5],[1,0.5]];portConstraint=eastwest;whiteSpace=wrap;html=1;" vertex="1" parent="pHvH7JIO3FY33nbS9zuh-122">
          <mxGeometry y="104" width="140" height="26" as="geometry" />
        </mxCell>
        <mxCell id="pHvH7JIO3FY33nbS9zuh-143" style="edgeStyle=orthogonalEdgeStyle;shape=connector;rounded=0;orthogonalLoop=1;jettySize=auto;html=1;strokeColor=default;align=center;verticalAlign=middle;fontFamily=Helvetica;fontSize=11;fontColor=default;labelBackgroundColor=default;endArrow=None;" edge="1" parent="1" source="pHvH7JIO3FY33nbS9zuh-139" target="pHvH7JIO3FY33nbS9zuh-7">
          <mxGeometry relative="1" as="geometry">
            <Array as="points">
              <mxPoint x="175" y="360" />
              <mxPoint x="175" y="360" />
            </Array>
          </mxGeometry>
        </mxCell>
        <mxCell id="pHvH7JIO3FY33nbS9zuh-144" style="edgeStyle=orthogonalEdgeStyle;shape=connector;rounded=0;orthogonalLoop=1;jettySize=auto;html=1;strokeColor=default;align=center;verticalAlign=middle;fontFamily=Helvetica;fontSize=11;fontColor=default;labelBackgroundColor=default;endArrow=None;" edge="1" parent="1" source="pHvH7JIO3FY33nbS9zuh-139" target="pHvH7JIO3FY33nbS9zuh-58">
          <mxGeometry relative="1" as="geometry" />
        </mxCell>
        <mxCell id="pHvH7JIO3FY33nbS9zuh-146" style="edgeStyle=orthogonalEdgeStyle;shape=connector;rounded=0;orthogonalLoop=1;jettySize=auto;html=1;strokeColor=default;align=center;verticalAlign=middle;fontFamily=Helvetica;fontSize=11;fontColor=default;labelBackgroundColor=default;endArrow=None;" edge="1" parent="1" source="pHvH7JIO3FY33nbS9zuh-139" target="pHvH7JIO3FY33nbS9zuh-32">
          <mxGeometry relative="1" as="geometry" />
        </mxCell>
        <mxCell id="pHvH7JIO3FY33nbS9zuh-139" value="DocumentacaoTalaoUsuario" style="swimlane;fontStyle=0;childLayout=stackLayout;horizontal=1;startSize=26;fillColor=none;horizontalStack=0;resizeParent=1;resizeParentMax=0;resizeLast=0;collapsible=1;marginBottom=0;whiteSpace=wrap;html=1;" vertex="1" parent="1">
          <mxGeometry x="80" y="420" width="190" height="122" as="geometry" />
        </mxCell>
        <mxCell id="pHvH7JIO3FY33nbS9zuh-140" value="+ TalaoId: short" style="text;strokeColor=none;fillColor=none;align=left;verticalAlign=top;spacingLeft=4;spacingRight=4;overflow=hidden;rotatable=0;points=[[0,0.5],[1,0.5]];portConstraint=eastwest;whiteSpace=wrap;html=1;" vertex="1" parent="pHvH7JIO3FY33nbS9zuh-139">
          <mxGeometry y="26" width="190" height="22" as="geometry" />
        </mxCell>
        <mxCell id="pHvH7JIO3FY33nbS9zuh-141" value="+ UsuarioId: Guid" style="text;strokeColor=none;fillColor=none;align=left;verticalAlign=top;spacingLeft=4;spacingRight=4;overflow=hidden;rotatable=0;points=[[0,0.5],[1,0.5]];portConstraint=eastwest;whiteSpace=wrap;html=1;" vertex="1" parent="pHvH7JIO3FY33nbS9zuh-139">
          <mxGeometry y="48" width="190" height="26" as="geometry" />
        </mxCell>
        <mxCell id="pHvH7JIO3FY33nbS9zuh-142" value="+ Descricao: string" style="text;strokeColor=none;fillColor=none;align=left;verticalAlign=top;spacingLeft=4;spacingRight=4;overflow=hidden;rotatable=0;points=[[0,0.5],[1,0.5]];portConstraint=eastwest;whiteSpace=wrap;html=1;" vertex="1" parent="pHvH7JIO3FY33nbS9zuh-139">
          <mxGeometry y="74" width="190" height="26" as="geometry" />
        </mxCell>
        <mxCell id="pHvH7JIO3FY33nbS9zuh-147" value="+ DataSolicitacao: DateTime" style="text;strokeColor=none;fillColor=none;align=left;verticalAlign=top;spacingLeft=4;spacingRight=4;overflow=hidden;rotatable=0;points=[[0,0.5],[1,0.5]];portConstraint=eastwest;whiteSpace=wrap;html=1;" vertex="1" parent="pHvH7JIO3FY33nbS9zuh-139">
          <mxGeometry y="100" width="190" height="22" as="geometry" />
        </mxCell>
        <mxCell id="pHvH7JIO3FY33nbS9zuh-163" style="edgeStyle=orthogonalEdgeStyle;shape=connector;rounded=0;orthogonalLoop=1;jettySize=auto;html=1;strokeColor=default;align=center;verticalAlign=middle;fontFamily=Helvetica;fontSize=11;fontColor=default;labelBackgroundColor=default;endArrow=None;" edge="1" parent="1" source="pHvH7JIO3FY33nbS9zuh-149" target="pHvH7JIO3FY33nbS9zuh-157">
          <mxGeometry relative="1" as="geometry" />
        </mxCell>
        <mxCell id="pHvH7JIO3FY33nbS9zuh-149" value="Documentos" style="swimlane;fontStyle=0;childLayout=stackLayout;horizontal=1;startSize=26;fillColor=none;horizontalStack=0;resizeParent=1;resizeParentMax=0;resizeLast=0;collapsible=1;marginBottom=0;whiteSpace=wrap;html=1;" vertex="1" parent="1">
          <mxGeometry x="95" y="-150" width="190" height="122" as="geometry" />
        </mxCell>
        <mxCell id="pHvH7JIO3FY33nbS9zuh-150" value="+ Id: short" style="text;strokeColor=none;fillColor=none;align=left;verticalAlign=top;spacingLeft=4;spacingRight=4;overflow=hidden;rotatable=0;points=[[0,0.5],[1,0.5]];portConstraint=eastwest;whiteSpace=wrap;html=1;" vertex="1" parent="pHvH7JIO3FY33nbS9zuh-149">
          <mxGeometry y="26" width="190" height="22" as="geometry" />
        </mxCell>
        <mxCell id="pHvH7JIO3FY33nbS9zuh-151" value="+ Nome: string" style="text;strokeColor=none;fillColor=none;align=left;verticalAlign=top;spacingLeft=4;spacingRight=4;overflow=hidden;rotatable=0;points=[[0,0.5],[1,0.5]];portConstraint=eastwest;whiteSpace=wrap;html=1;" vertex="1" parent="pHvH7JIO3FY33nbS9zuh-149">
          <mxGeometry y="48" width="190" height="26" as="geometry" />
        </mxCell>
        <mxCell id="pHvH7JIO3FY33nbS9zuh-152" value="+ Descricao: string" style="text;strokeColor=none;fillColor=none;align=left;verticalAlign=top;spacingLeft=4;spacingRight=4;overflow=hidden;rotatable=0;points=[[0,0.5],[1,0.5]];portConstraint=eastwest;whiteSpace=wrap;html=1;" vertex="1" parent="pHvH7JIO3FY33nbS9zuh-149">
          <mxGeometry y="74" width="190" height="26" as="geometry" />
        </mxCell>
        <mxCell id="pHvH7JIO3FY33nbS9zuh-153" value="+ DataSolicitacao: DateTime" style="text;strokeColor=none;fillColor=none;align=left;verticalAlign=top;spacingLeft=4;spacingRight=4;overflow=hidden;rotatable=0;points=[[0,0.5],[1,0.5]];portConstraint=eastwest;whiteSpace=wrap;html=1;" vertex="1" parent="pHvH7JIO3FY33nbS9zuh-149">
          <mxGeometry y="100" width="190" height="22" as="geometry" />
        </mxCell>
        <mxCell id="pHvH7JIO3FY33nbS9zuh-162" style="edgeStyle=orthogonalEdgeStyle;shape=connector;rounded=0;orthogonalLoop=1;jettySize=auto;html=1;strokeColor=default;align=center;verticalAlign=middle;fontFamily=Helvetica;fontSize=11;fontColor=default;labelBackgroundColor=default;endArrow=None;" edge="1" parent="1" source="pHvH7JIO3FY33nbS9zuh-157" target="pHvH7JIO3FY33nbS9zuh-11">
          <mxGeometry relative="1" as="geometry">
            <Array as="points">
              <mxPoint x="460" y="160" />
            </Array>
          </mxGeometry>
        </mxCell>
        <mxCell id="pHvH7JIO3FY33nbS9zuh-164" style="edgeStyle=orthogonalEdgeStyle;shape=connector;rounded=0;orthogonalLoop=1;jettySize=auto;html=1;strokeColor=default;align=center;verticalAlign=middle;fontFamily=Helvetica;fontSize=11;fontColor=default;labelBackgroundColor=default;endArrow=None;" edge="1" parent="1" source="pHvH7JIO3FY33nbS9zuh-157" target="pHvH7JIO3FY33nbS9zuh-7">
          <mxGeometry relative="1" as="geometry" />
        </mxCell>
        <mxCell id="pHvH7JIO3FY33nbS9zuh-165" style="edgeStyle=orthogonalEdgeStyle;shape=connector;rounded=0;orthogonalLoop=1;jettySize=auto;html=1;strokeColor=default;align=center;verticalAlign=middle;fontFamily=Helvetica;fontSize=11;fontColor=default;labelBackgroundColor=default;endArrow=None;" edge="1" parent="1" source="pHvH7JIO3FY33nbS9zuh-157">
          <mxGeometry relative="1" as="geometry">
            <mxPoint x="190.0000000000001" y="46.36363636363636" as="targetPoint" />
          </mxGeometry>
        </mxCell>
        <mxCell id="pHvH7JIO3FY33nbS9zuh-157" value="DocumentosTalao" style="swimlane;fontStyle=0;childLayout=stackLayout;horizontal=1;startSize=26;fillColor=none;horizontalStack=0;resizeParent=1;resizeParentMax=0;resizeLast=0;collapsible=1;marginBottom=0;whiteSpace=wrap;html=1;" vertex="1" parent="1">
          <mxGeometry x="95" y="70" width="190" height="100" as="geometry" />
        </mxCell>
        <mxCell id="pHvH7JIO3FY33nbS9zuh-158" value="+ TalaoId: short" style="text;strokeColor=none;fillColor=none;align=left;verticalAlign=top;spacingLeft=4;spacingRight=4;overflow=hidden;rotatable=0;points=[[0,0.5],[1,0.5]];portConstraint=eastwest;whiteSpace=wrap;html=1;" vertex="1" parent="pHvH7JIO3FY33nbS9zuh-157">
          <mxGeometry y="26" width="190" height="22" as="geometry" />
        </mxCell>
        <mxCell id="pHvH7JIO3FY33nbS9zuh-159" value="+ DocumentoId: string" style="text;strokeColor=none;fillColor=none;align=left;verticalAlign=top;spacingLeft=4;spacingRight=4;overflow=hidden;rotatable=0;points=[[0,0.5],[1,0.5]];portConstraint=eastwest;whiteSpace=wrap;html=1;" vertex="1" parent="pHvH7JIO3FY33nbS9zuh-157">
          <mxGeometry y="48" width="190" height="26" as="geometry" />
        </mxCell>
        <mxCell id="pHvH7JIO3FY33nbS9zuh-160" value="+ TipoPessoaId: string" style="text;strokeColor=none;fillColor=none;align=left;verticalAlign=top;spacingLeft=4;spacingRight=4;overflow=hidden;rotatable=0;points=[[0,0.5],[1,0.5]];portConstraint=eastwest;whiteSpace=wrap;html=1;" vertex="1" parent="pHvH7JIO3FY33nbS9zuh-157">
          <mxGeometry y="74" width="190" height="26" as="geometry" />
        </mxCell>
      </root>
    </mxGraphModel>
  </diagram>
</mxfile>
